<mxfile host="app.diagrams.net" modified="2024-04-18T16:13:54.408Z" agent="Mozilla/5.0 (Windows NT 10.0; Win64; x64) AppleWebKit/537.36 (KHTML, like Gecko) Chrome/123.0.0.0 Safari/537.36" etag="Gcjmupg9yrQKz14ubOp5" version="24.2.5" type="google">
  <diagram id="C5RBs43oDa-KdzZeNtuy" name="Page-1">
    <mxGraphModel grid="1" page="1" gridSize="10" guides="1" tooltips="1" connect="1" arrows="1" fold="1" pageScale="1" pageWidth="827" pageHeight="1169" math="0" shadow="0">
      <root>
        <mxCell id="WIyWlLk6GJQsqaUBKTNV-0" />
        <mxCell id="WIyWlLk6GJQsqaUBKTNV-1" parent="WIyWlLk6GJQsqaUBKTNV-0" />
        <mxCell id="zkfFHV4jXpPFQw0GAbJ--0" value="Usuario" style="swimlane;fontStyle=2;align=center;verticalAlign=top;childLayout=stackLayout;horizontal=1;startSize=30;horizontalStack=0;resizeParent=1;resizeLast=0;collapsible=1;marginBottom=0;rounded=0;shadow=0;strokeWidth=1;" vertex="1" parent="WIyWlLk6GJQsqaUBKTNV-1">
          <mxGeometry x="70" y="30" width="330" height="250" as="geometry">
            <mxRectangle x="230" y="140" width="160" height="26" as="alternateBounds" />
          </mxGeometry>
        </mxCell>
        <mxCell id="zkfFHV4jXpPFQw0GAbJ--1" value="+Nombre: String&#xa;+Apellidos: String&#xa;+Id: Int&#xa;+Correo: String&#xa;+Contrasena: String&#xa;+curso: String, &#xa;+rol: String, &#xa;" style="text;align=left;verticalAlign=top;spacingLeft=4;spacingRight=4;overflow=hidden;rotatable=0;points=[[0,0.5],[1,0.5]];portConstraint=eastwest;" vertex="1" parent="zkfFHV4jXpPFQw0GAbJ--0">
          <mxGeometry y="30" width="330" height="130" as="geometry" />
        </mxCell>
        <mxCell id="zkfFHV4jXpPFQw0GAbJ--5" value="iniciarSesion(String correos,String contrasenas): Boolean, &#xa;+get y set&#xa;para todos los atributos, &#xa;-cerrarSesion():void, " style="text;align=left;verticalAlign=top;spacingLeft=4;spacingRight=4;overflow=hidden;rotatable=0;points=[[0,0.5],[1,0.5]];portConstraint=eastwest;" vertex="1" parent="zkfFHV4jXpPFQw0GAbJ--0">
          <mxGeometry y="160" width="330" as="geometry" />
        </mxCell>
        <mxCell id="zkfFHV4jXpPFQw0GAbJ--4" value="" style="line;html=1;strokeWidth=1;align=left;verticalAlign=middle;spacingTop=-1;spacingLeft=3;spacingRight=3;rotatable=0;labelPosition=right;points=[];portConstraint=eastwest;" vertex="1" parent="zkfFHV4jXpPFQw0GAbJ--0">
          <mxGeometry y="160" width="330" height="8" as="geometry" />
        </mxCell>
        <mxCell id="zkfFHV4jXpPFQw0GAbJ--6" value="Alumno" style="swimlane;fontStyle=0;align=center;verticalAlign=top;childLayout=stackLayout;horizontal=1;startSize=26;horizontalStack=0;resizeParent=1;resizeLast=0;collapsible=1;marginBottom=0;rounded=0;shadow=0;strokeWidth=1;" vertex="1" parent="WIyWlLk6GJQsqaUBKTNV-1">
          <mxGeometry x="20" y="360" width="180" height="170" as="geometry">
            <mxRectangle x="130" y="380" width="160" height="26" as="alternateBounds" />
          </mxGeometry>
        </mxCell>
        <mxCell id="zkfFHV4jXpPFQw0GAbJ--9" value="" style="line;html=1;strokeWidth=1;align=left;verticalAlign=middle;spacingTop=-1;spacingLeft=3;spacingRight=3;rotatable=0;labelPosition=right;points=[];portConstraint=eastwest;" vertex="1" parent="zkfFHV4jXpPFQw0GAbJ--6">
          <mxGeometry y="26" width="180" height="8" as="geometry" />
        </mxCell>
        <mxCell id="zkfFHV4jXpPFQw0GAbJ--11" value="inscripcionCurso(Curso&#xa;cursos): Boolean, &#xa;bajaCurso(Curso cursos): Boolean, &#xa;enviarTareas(Int tareas,&#xa;String correos): Boolean," style="text;align=left;verticalAlign=top;spacingLeft=4;spacingRight=4;overflow=hidden;rotatable=0;points=[[0,0.5],[1,0.5]];portConstraint=eastwest;" vertex="1" parent="zkfFHV4jXpPFQw0GAbJ--6">
          <mxGeometry y="34" width="180" height="84" as="geometry" />
        </mxCell>
        <mxCell id="zkfFHV4jXpPFQw0GAbJ--12" value="" style="endArrow=block;endSize=10;endFill=0;shadow=0;strokeWidth=1;rounded=0;curved=0;edgeStyle=elbowEdgeStyle;elbow=vertical;entryX=0.5;entryY=0;entryDx=0;entryDy=0;" edge="1" parent="WIyWlLk6GJQsqaUBKTNV-1" target="zkfFHV4jXpPFQw0GAbJ--6">
          <mxGeometry width="160" relative="1" as="geometry">
            <mxPoint x="240" y="280" as="sourcePoint" />
            <mxPoint x="108" y="356" as="targetPoint" />
            <Array as="points">
              <mxPoint x="160" y="330" />
            </Array>
          </mxGeometry>
        </mxCell>
        <mxCell id="zkfFHV4jXpPFQw0GAbJ--13" value="Profesor" style="swimlane;fontStyle=0;align=center;verticalAlign=top;childLayout=stackLayout;horizontal=1;startSize=26;horizontalStack=0;resizeParent=1;resizeLast=0;collapsible=1;marginBottom=0;rounded=0;shadow=0;strokeWidth=1;" vertex="1" parent="WIyWlLk6GJQsqaUBKTNV-1">
          <mxGeometry x="230" y="360" width="340" height="170" as="geometry">
            <mxRectangle x="340" y="380" width="170" height="26" as="alternateBounds" />
          </mxGeometry>
        </mxCell>
        <mxCell id="zkfFHV4jXpPFQw0GAbJ--15" value="" style="line;html=1;strokeWidth=1;align=left;verticalAlign=middle;spacingTop=-1;spacingLeft=3;spacingRight=3;rotatable=0;labelPosition=right;points=[];portConstraint=eastwest;" vertex="1" parent="zkfFHV4jXpPFQw0GAbJ--13">
          <mxGeometry y="26" width="340" height="8" as="geometry" />
        </mxCell>
        <mxCell id="F9NlU1KI9bfKZTOe0GzZ-5" value="crearCurso(Curso cursos): Boolean, &#xa;eliminarCurso(int ID), &#xa;enviarNotaexamen(Int notaexamenes, String correos), &#xa;publicarMateriales(String nombremateriales, String correos)" style="text;align=left;verticalAlign=top;spacingLeft=4;spacingRight=4;overflow=hidden;rotatable=0;points=[[0,0.5],[1,0.5]];portConstraint=eastwest;" vertex="1" parent="zkfFHV4jXpPFQw0GAbJ--13">
          <mxGeometry y="34" width="340" height="136" as="geometry" />
        </mxCell>
        <mxCell id="6bKCteFQpn9_bpGlKNxa-18" value="" style="endArrow=open;endFill=1;endSize=12;html=1;rounded=0;" edge="1" parent="zkfFHV4jXpPFQw0GAbJ--13">
          <mxGeometry width="160" relative="1" as="geometry">
            <mxPoint x="-30" y="110" as="sourcePoint" />
            <mxPoint y="110" as="targetPoint" />
          </mxGeometry>
        </mxCell>
        <mxCell id="zkfFHV4jXpPFQw0GAbJ--16" value="" style="endArrow=block;endSize=10;endFill=0;shadow=0;strokeWidth=1;rounded=0;curved=0;edgeStyle=elbowEdgeStyle;elbow=vertical;entryX=0.5;entryY=0;entryDx=0;entryDy=0;" edge="1" parent="WIyWlLk6GJQsqaUBKTNV-1" target="zkfFHV4jXpPFQw0GAbJ--13">
          <mxGeometry width="160" relative="1" as="geometry">
            <mxPoint x="250" y="280" as="sourcePoint" />
            <mxPoint x="70" y="310" as="targetPoint" />
            <Array as="points">
              <mxPoint x="320" y="330" />
            </Array>
          </mxGeometry>
        </mxCell>
        <mxCell id="zkfFHV4jXpPFQw0GAbJ--17" value="Curso" style="swimlane;fontStyle=0;align=center;verticalAlign=top;childLayout=stackLayout;horizontal=1;startSize=26;horizontalStack=0;resizeParent=1;resizeLast=0;collapsible=1;marginBottom=0;rounded=0;shadow=0;strokeWidth=1;" vertex="1" parent="WIyWlLk6GJQsqaUBKTNV-1">
          <mxGeometry x="540" y="80" width="240" height="263" as="geometry">
            <mxRectangle x="550" y="140" width="160" height="26" as="alternateBounds" />
          </mxGeometry>
        </mxCell>
        <mxCell id="zkfFHV4jXpPFQw0GAbJ--18" value="+nombre:&#xa;String, &#xa;+apellidos: String, &#xa;+id: int, &#xa;+correo: String, &#xa;+contrasena: String," style="text;align=left;verticalAlign=top;spacingLeft=4;spacingRight=4;overflow=hidden;rotatable=0;points=[[0,0.5],[1,0.5]];portConstraint=eastwest;" vertex="1" parent="zkfFHV4jXpPFQw0GAbJ--17">
          <mxGeometry y="26" width="240" height="104" as="geometry" />
        </mxCell>
        <mxCell id="zkfFHV4jXpPFQw0GAbJ--23" value="" style="line;html=1;strokeWidth=1;align=left;verticalAlign=middle;spacingTop=-1;spacingLeft=3;spacingRight=3;rotatable=0;labelPosition=right;points=[];portConstraint=eastwest;" vertex="1" parent="zkfFHV4jXpPFQw0GAbJ--17">
          <mxGeometry y="130" width="240" height="28" as="geometry" />
        </mxCell>
        <mxCell id="F9NlU1KI9bfKZTOe0GzZ-6" value="iniciarSesion(String&#xa;correos,String contrasenas): Boolean, &#xa;+get y set para todos los atributos, &#xa;-cerrarSesion():void" style="text;align=left;verticalAlign=top;spacingLeft=4;spacingRight=4;overflow=hidden;rotatable=0;points=[[0,0.5],[1,0.5]];portConstraint=eastwest;" vertex="1" parent="zkfFHV4jXpPFQw0GAbJ--17">
          <mxGeometry y="158" width="240" height="104" as="geometry" />
        </mxCell>
        <mxCell id="F9NlU1KI9bfKZTOe0GzZ-7" value="Examen" style="swimlane;fontStyle=0;align=center;verticalAlign=top;childLayout=stackLayout;horizontal=1;startSize=26;horizontalStack=0;resizeParent=1;resizeLast=0;collapsible=1;marginBottom=0;rounded=0;shadow=0;strokeWidth=1;" vertex="1" parent="WIyWlLk6GJQsqaUBKTNV-1">
          <mxGeometry x="50" y="650" width="240" height="262" as="geometry">
            <mxRectangle x="550" y="140" width="160" height="26" as="alternateBounds" />
          </mxGeometry>
        </mxCell>
        <mxCell id="F9NlU1KI9bfKZTOe0GzZ-8" value="+nombre: String, &#xa;+id: int, &#xa;+fechaExamen: Date, &#xa;+notaExamen: Int,&#xa;ID, fecha, (resultados), &#xa;+descripcionExamen: String," style="text;align=left;verticalAlign=top;spacingLeft=4;spacingRight=4;overflow=hidden;rotatable=0;points=[[0,0.5],[1,0.5]];portConstraint=eastwest;" vertex="1" parent="F9NlU1KI9bfKZTOe0GzZ-7">
          <mxGeometry y="26" width="240" height="104" as="geometry" />
        </mxCell>
        <mxCell id="F9NlU1KI9bfKZTOe0GzZ-9" value="" style="line;html=1;strokeWidth=1;align=left;verticalAlign=middle;spacingTop=-1;spacingLeft=3;spacingRight=3;rotatable=0;labelPosition=right;points=[];portConstraint=eastwest;" vertex="1" parent="F9NlU1KI9bfKZTOe0GzZ-7">
          <mxGeometry y="130" width="240" height="28" as="geometry" />
        </mxCell>
        <mxCell id="F9NlU1KI9bfKZTOe0GzZ-10" value="asignarNota(Int notas,String alumnos), &#xa;enviarNota(Int notas, String correos)" style="text;align=left;verticalAlign=top;spacingLeft=4;spacingRight=4;overflow=hidden;rotatable=0;points=[[0,0.5],[1,0.5]];portConstraint=eastwest;" vertex="1" parent="F9NlU1KI9bfKZTOe0GzZ-7">
          <mxGeometry y="158" width="240" height="104" as="geometry" />
        </mxCell>
        <mxCell id="F9NlU1KI9bfKZTOe0GzZ-11" value="Tareas" style="swimlane;fontStyle=0;align=center;verticalAlign=top;childLayout=stackLayout;horizontal=1;startSize=26;horizontalStack=0;resizeParent=1;resizeLast=0;collapsible=1;marginBottom=0;rounded=0;shadow=0;strokeWidth=1;" vertex="1" parent="WIyWlLk6GJQsqaUBKTNV-1">
          <mxGeometry x="310" y="650" width="240" height="262" as="geometry">
            <mxRectangle x="550" y="140" width="160" height="26" as="alternateBounds" />
          </mxGeometry>
        </mxCell>
        <mxCell id="F9NlU1KI9bfKZTOe0GzZ-12" value="+nombre: String, &#xa;+id: int, &#xa;+fechaTarea: Date, &#xa;+descripcionTarea: String,&#xa;+calificacionesTarea: Int." style="text;align=left;verticalAlign=top;spacingLeft=4;spacingRight=4;overflow=hidden;rotatable=0;points=[[0,0.5],[1,0.5]];portConstraint=eastwest;" vertex="1" parent="F9NlU1KI9bfKZTOe0GzZ-11">
          <mxGeometry y="26" width="240" height="104" as="geometry" />
        </mxCell>
        <mxCell id="F9NlU1KI9bfKZTOe0GzZ-13" value="" style="line;html=1;strokeWidth=1;align=left;verticalAlign=middle;spacingTop=-1;spacingLeft=3;spacingRight=3;rotatable=0;labelPosition=right;points=[];portConstraint=eastwest;" vertex="1" parent="F9NlU1KI9bfKZTOe0GzZ-11">
          <mxGeometry y="130" width="240" height="28" as="geometry" />
        </mxCell>
        <mxCell id="F9NlU1KI9bfKZTOe0GzZ-14" value="asignarTarea(Int id, String alumnos), &#xa;enviarTareas(Int tareas, String&#xa;correos)" style="text;align=left;verticalAlign=top;spacingLeft=4;spacingRight=4;overflow=hidden;rotatable=0;points=[[0,0.5],[1,0.5]];portConstraint=eastwest;" vertex="1" parent="F9NlU1KI9bfKZTOe0GzZ-11">
          <mxGeometry y="158" width="240" height="104" as="geometry" />
        </mxCell>
        <mxCell id="F9NlU1KI9bfKZTOe0GzZ-15" value="Materiales" style="swimlane;fontStyle=0;align=center;verticalAlign=top;childLayout=stackLayout;horizontal=1;startSize=26;horizontalStack=0;resizeParent=1;resizeLast=0;collapsible=1;marginBottom=0;rounded=0;shadow=0;strokeWidth=1;" vertex="1" parent="WIyWlLk6GJQsqaUBKTNV-1">
          <mxGeometry x="690" y="388" width="240" height="262" as="geometry">
            <mxRectangle x="550" y="140" width="160" height="26" as="alternateBounds" />
          </mxGeometry>
        </mxCell>
        <mxCell id="F9NlU1KI9bfKZTOe0GzZ-16" value="+nombre: String, &#xa;+id: int, &#xa;+descripcionMaterial:&#xa;String," style="text;align=left;verticalAlign=top;spacingLeft=4;spacingRight=4;overflow=hidden;rotatable=0;points=[[0,0.5],[1,0.5]];portConstraint=eastwest;" vertex="1" parent="F9NlU1KI9bfKZTOe0GzZ-15">
          <mxGeometry y="26" width="240" height="104" as="geometry" />
        </mxCell>
        <mxCell id="F9NlU1KI9bfKZTOe0GzZ-17" value="" style="line;html=1;strokeWidth=1;align=left;verticalAlign=middle;spacingTop=-1;spacingLeft=3;spacingRight=3;rotatable=0;labelPosition=right;points=[];portConstraint=eastwest;" vertex="1" parent="F9NlU1KI9bfKZTOe0GzZ-15">
          <mxGeometry y="130" width="240" height="28" as="geometry" />
        </mxCell>
        <mxCell id="F9NlU1KI9bfKZTOe0GzZ-18" value="+realizarConsultamateriales(String nombres,&#xa;Int alumnos)" style="text;align=left;verticalAlign=top;spacingLeft=4;spacingRight=4;overflow=hidden;rotatable=0;points=[[0,0.5],[1,0.5]];portConstraint=eastwest;" vertex="1" parent="F9NlU1KI9bfKZTOe0GzZ-15">
          <mxGeometry y="158" width="240" height="104" as="geometry" />
        </mxCell>
        <mxCell id="F9NlU1KI9bfKZTOe0GzZ-19" value="Foro" style="swimlane;fontStyle=0;align=center;verticalAlign=top;childLayout=stackLayout;horizontal=1;startSize=26;horizontalStack=0;resizeParent=1;resizeLast=0;collapsible=1;marginBottom=0;rounded=0;shadow=0;strokeWidth=1;" vertex="1" parent="WIyWlLk6GJQsqaUBKTNV-1">
          <mxGeometry x="650" y="670" width="260" height="262" as="geometry">
            <mxRectangle x="550" y="140" width="160" height="26" as="alternateBounds" />
          </mxGeometry>
        </mxCell>
        <mxCell id="F9NlU1KI9bfKZTOe0GzZ-20" value="+nombre: String, &#xa;+id: int, &#xa;+fecha: Date, &#xa;+temaforo: String, " style="text;align=left;verticalAlign=top;spacingLeft=4;spacingRight=4;overflow=hidden;rotatable=0;points=[[0,0.5],[1,0.5]];portConstraint=eastwest;" vertex="1" parent="F9NlU1KI9bfKZTOe0GzZ-19">
          <mxGeometry y="26" width="260" height="104" as="geometry" />
        </mxCell>
        <mxCell id="F9NlU1KI9bfKZTOe0GzZ-21" value="" style="line;html=1;strokeWidth=1;align=left;verticalAlign=middle;spacingTop=-1;spacingLeft=3;spacingRight=3;rotatable=0;labelPosition=right;points=[];portConstraint=eastwest;" vertex="1" parent="F9NlU1KI9bfKZTOe0GzZ-19">
          <mxGeometry y="130" width="260" height="28" as="geometry" />
        </mxCell>
        <mxCell id="F9NlU1KI9bfKZTOe0GzZ-22" value="+crearForo(Int&#xa;ids, String temaforos), &#xa;+enviarAviso(String alumnos, String correos)" style="text;align=left;verticalAlign=top;spacingLeft=4;spacingRight=4;overflow=hidden;rotatable=0;points=[[0,0.5],[1,0.5]];portConstraint=eastwest;" vertex="1" parent="F9NlU1KI9bfKZTOe0GzZ-19">
          <mxGeometry y="158" width="260" height="104" as="geometry" />
        </mxCell>
        <mxCell id="F9NlU1KI9bfKZTOe0GzZ-23" value="Base Datos Bibliografica" style="swimlane;fontStyle=0;align=center;verticalAlign=top;childLayout=stackLayout;horizontal=1;startSize=26;horizontalStack=0;resizeParent=1;resizeLast=0;collapsible=1;marginBottom=0;rounded=0;shadow=0;strokeWidth=1;" vertex="1" parent="WIyWlLk6GJQsqaUBKTNV-1">
          <mxGeometry x="870" y="138" width="260" height="222" as="geometry">
            <mxRectangle x="550" y="140" width="160" height="26" as="alternateBounds" />
          </mxGeometry>
        </mxCell>
        <mxCell id="F9NlU1KI9bfKZTOe0GzZ-24" value="+id: int, +fecha: Date, &#xa;+textobasedatos:&#xa;String, " style="text;align=left;verticalAlign=top;spacingLeft=4;spacingRight=4;overflow=hidden;rotatable=0;points=[[0,0.5],[1,0.5]];portConstraint=eastwest;" vertex="1" parent="F9NlU1KI9bfKZTOe0GzZ-23">
          <mxGeometry y="26" width="260" height="64" as="geometry" />
        </mxCell>
        <mxCell id="F9NlU1KI9bfKZTOe0GzZ-25" value="" style="line;html=1;strokeWidth=1;align=left;verticalAlign=middle;spacingTop=-1;spacingLeft=3;spacingRight=3;rotatable=0;labelPosition=right;points=[];portConstraint=eastwest;" vertex="1" parent="F9NlU1KI9bfKZTOe0GzZ-23">
          <mxGeometry y="90" width="260" height="28" as="geometry" />
        </mxCell>
        <mxCell id="F9NlU1KI9bfKZTOe0GzZ-26" value="+publicarEnlaceBaseDatos(Int ids, String&#xa;correos)" style="text;align=left;verticalAlign=top;spacingLeft=4;spacingRight=4;overflow=hidden;rotatable=0;points=[[0,0.5],[1,0.5]];portConstraint=eastwest;" vertex="1" parent="F9NlU1KI9bfKZTOe0GzZ-23">
          <mxGeometry y="118" width="260" height="104" as="geometry" />
        </mxCell>
        <mxCell id="F9NlU1KI9bfKZTOe0GzZ-31" value="Plataforma E-Learning" style="swimlane;fontStyle=0;align=center;verticalAlign=top;childLayout=stackLayout;horizontal=1;startSize=26;horizontalStack=0;resizeParent=1;resizeLast=0;collapsible=1;marginBottom=0;rounded=0;shadow=0;strokeWidth=1;" vertex="1" parent="WIyWlLk6GJQsqaUBKTNV-1">
          <mxGeometry x="870" y="-171" width="260" height="222" as="geometry">
            <mxRectangle x="550" y="140" width="160" height="26" as="alternateBounds" />
          </mxGeometry>
        </mxCell>
        <mxCell id="F9NlU1KI9bfKZTOe0GzZ-32" value="+id: int, &#xa;+fecha: Date, &#xa;+textobasedatos:&#xa;String, " style="text;align=left;verticalAlign=top;spacingLeft=4;spacingRight=4;overflow=hidden;rotatable=0;points=[[0,0.5],[1,0.5]];portConstraint=eastwest;" vertex="1" parent="F9NlU1KI9bfKZTOe0GzZ-31">
          <mxGeometry y="26" width="260" height="64" as="geometry" />
        </mxCell>
        <mxCell id="F9NlU1KI9bfKZTOe0GzZ-33" value="" style="line;html=1;strokeWidth=1;align=left;verticalAlign=middle;spacingTop=-1;spacingLeft=3;spacingRight=3;rotatable=0;labelPosition=right;points=[];portConstraint=eastwest;" vertex="1" parent="F9NlU1KI9bfKZTOe0GzZ-31">
          <mxGeometry y="90" width="260" height="28" as="geometry" />
        </mxCell>
        <mxCell id="F9NlU1KI9bfKZTOe0GzZ-34" value="+publicarEnlacePlataformae-learning&#xa;(Int ids, String correos)" style="text;align=left;verticalAlign=top;spacingLeft=4;spacingRight=4;overflow=hidden;rotatable=0;points=[[0,0.5],[1,0.5]];portConstraint=eastwest;" vertex="1" parent="F9NlU1KI9bfKZTOe0GzZ-31">
          <mxGeometry y="118" width="260" height="104" as="geometry" />
        </mxCell>
        <mxCell id="F9NlU1KI9bfKZTOe0GzZ-45" value="1..*" style="resizable=0;align=left;verticalAlign=bottom;labelBackgroundColor=none;fontSize=12;" connectable="0" vertex="1" parent="WIyWlLk6GJQsqaUBKTNV-1">
          <mxGeometry x="200" y="445" as="geometry" />
        </mxCell>
        <mxCell id="F9NlU1KI9bfKZTOe0GzZ-46" value="1..*" style="resizable=0;align=left;verticalAlign=bottom;labelBackgroundColor=none;fontSize=12;" connectable="0" vertex="1" parent="WIyWlLk6GJQsqaUBKTNV-1">
          <mxGeometry x="210" y="500" as="geometry" />
        </mxCell>
        <mxCell id="F9NlU1KI9bfKZTOe0GzZ-68" value="1..*" style="resizable=0;align=left;verticalAlign=bottom;labelBackgroundColor=none;fontSize=12;" connectable="0" vertex="1" parent="WIyWlLk6GJQsqaUBKTNV-1">
          <mxGeometry x="625" y="721" as="geometry" />
        </mxCell>
        <mxCell id="F9NlU1KI9bfKZTOe0GzZ-81" value="" style="endArrow=diamondThin;endFill=1;endSize=24;html=1;rounded=0;entryX=0.995;entryY=0.352;entryDx=0;entryDy=0;entryPerimeter=0;exitX=0.575;exitY=0;exitDx=0;exitDy=0;exitPerimeter=0;" edge="1" parent="WIyWlLk6GJQsqaUBKTNV-1" source="F9NlU1KI9bfKZTOe0GzZ-15">
          <mxGeometry width="160" relative="1" as="geometry">
            <mxPoint x="832.8" y="482.9540000000001" as="sourcePoint" />
            <mxPoint x="780.0000000000002" y="237.03800000000007" as="targetPoint" />
            <Array as="points">
              <mxPoint x="830" y="237" />
            </Array>
          </mxGeometry>
        </mxCell>
        <mxCell id="F9NlU1KI9bfKZTOe0GzZ-82" value="1..*" style="resizable=0;align=left;verticalAlign=bottom;labelBackgroundColor=none;fontSize=12;" connectable="0" vertex="1" parent="WIyWlLk6GJQsqaUBKTNV-1">
          <mxGeometry x="680" y="-110" as="geometry" />
        </mxCell>
        <mxCell id="F9NlU1KI9bfKZTOe0GzZ-86" value="0..*" style="resizable=0;align=left;verticalAlign=bottom;labelBackgroundColor=none;fontSize=12;direction=south;" connectable="0" vertex="1" parent="WIyWlLk6GJQsqaUBKTNV-1">
          <mxGeometry x="109.99999999999989" y="550" as="geometry">
            <mxPoint as="offset" />
          </mxGeometry>
        </mxCell>
        <mxCell id="F9NlU1KI9bfKZTOe0GzZ-90" value="" style="endArrow=diamondThin;endFill=1;endSize=24;html=1;rounded=0;entryX=0.704;entryY=0.001;entryDx=0;entryDy=0;entryPerimeter=0;exitX=0.001;exitY=0.779;exitDx=0;exitDy=0;exitPerimeter=0;" edge="1" parent="WIyWlLk6GJQsqaUBKTNV-1" source="F9NlU1KI9bfKZTOe0GzZ-6" target="zkfFHV4jXpPFQw0GAbJ--13">
          <mxGeometry width="160" relative="1" as="geometry">
            <mxPoint x="540" y="310" as="sourcePoint" />
            <mxPoint x="418.5" y="142" as="targetPoint" />
            <Array as="points">
              <mxPoint x="469" y="320" />
            </Array>
          </mxGeometry>
        </mxCell>
        <mxCell id="F9NlU1KI9bfKZTOe0GzZ-96" value="" style="endArrow=diamondThin;endFill=0;endSize=24;html=1;rounded=0;entryX=1.003;entryY=0.676;entryDx=0;entryDy=0;exitX=0.005;exitY=0.374;exitDx=0;exitDy=0;entryPerimeter=0;exitPerimeter=0;" edge="1" parent="WIyWlLk6GJQsqaUBKTNV-1" source="F9NlU1KI9bfKZTOe0GzZ-24" target="6bKCteFQpn9_bpGlKNxa-28">
          <mxGeometry width="160" relative="1" as="geometry">
            <mxPoint x="910" y="1070" as="sourcePoint" />
            <mxPoint x="780" y="180" as="targetPoint" />
            <Array as="points">
              <mxPoint x="840" y="188" />
              <mxPoint x="840" y="-48" />
            </Array>
          </mxGeometry>
        </mxCell>
        <mxCell id="F9NlU1KI9bfKZTOe0GzZ-97" value="" style="endArrow=diamondThin;endFill=0;endSize=24;html=1;rounded=0;entryX=0.996;entryY=0.674;entryDx=0;entryDy=0;exitX=0.002;exitY=0.612;exitDx=0;exitDy=0;entryPerimeter=0;exitPerimeter=0;" edge="1" parent="WIyWlLk6GJQsqaUBKTNV-1" source="F9NlU1KI9bfKZTOe0GzZ-32" target="6bKCteFQpn9_bpGlKNxa-27">
          <mxGeometry width="160" relative="1" as="geometry">
            <mxPoint x="890" y="1050" as="sourcePoint" />
            <mxPoint x="670" y="-75" as="targetPoint" />
            <Array as="points" />
          </mxGeometry>
        </mxCell>
        <mxCell id="F9NlU1KI9bfKZTOe0GzZ-98" value="1..*" style="resizable=0;align=left;verticalAlign=bottom;labelBackgroundColor=none;fontSize=12;" connectable="0" vertex="1" parent="WIyWlLk6GJQsqaUBKTNV-1">
          <mxGeometry x="680" y="-60" as="geometry" />
        </mxCell>
        <mxCell id="F9NlU1KI9bfKZTOe0GzZ-103" value="&lt;font style=&quot;font-size: 18px;&quot;&gt;Ejercicio 2 - Análisis requisitos funcionales y no funcionales&lt;/font&gt;&lt;div&gt;&lt;font style=&quot;font-size: 18px;&quot;&gt;Mariona Q. - Susanna S. - Jordi G.&lt;/font&gt;&lt;/div&gt;" style="text;html=1;align=center;verticalAlign=middle;whiteSpace=wrap;rounded=0;" vertex="1" parent="WIyWlLk6GJQsqaUBKTNV-1">
          <mxGeometry x="30" y="-125" width="270" height="50" as="geometry" />
        </mxCell>
        <mxCell id="6bKCteFQpn9_bpGlKNxa-5" value="" style="endArrow=diamondThin;endFill=1;endSize=24;html=1;rounded=0;entryX=0.294;entryY=1.014;entryDx=0;entryDy=0;entryPerimeter=0;exitX=0.5;exitY=0;exitDx=0;exitDy=0;" edge="1" parent="WIyWlLk6GJQsqaUBKTNV-1" source="F9NlU1KI9bfKZTOe0GzZ-7" target="F9NlU1KI9bfKZTOe0GzZ-6">
          <mxGeometry width="160" relative="1" as="geometry">
            <mxPoint x="430" y="620" as="sourcePoint" />
            <mxPoint x="492.0000000000002" y="600.038" as="targetPoint" />
            <Array as="points">
              <mxPoint x="170" y="600" />
              <mxPoint x="610" y="600" />
            </Array>
          </mxGeometry>
        </mxCell>
        <mxCell id="6bKCteFQpn9_bpGlKNxa-6" value="" style="endArrow=diamondThin;endFill=1;endSize=24;html=1;rounded=0;entryX=0.42;entryY=1.045;entryDx=0;entryDy=0;entryPerimeter=0;exitX=0.75;exitY=0;exitDx=0;exitDy=0;" edge="1" parent="WIyWlLk6GJQsqaUBKTNV-1" source="F9NlU1KI9bfKZTOe0GzZ-11">
          <mxGeometry width="160" relative="1" as="geometry">
            <mxPoint x="490" y="646" as="sourcePoint" />
            <mxPoint x="641" y="343" as="targetPoint" />
            <Array as="points">
              <mxPoint x="490" y="626" />
              <mxPoint x="641" y="626" />
            </Array>
          </mxGeometry>
        </mxCell>
        <mxCell id="6bKCteFQpn9_bpGlKNxa-7" value="Sitema" style="swimlane;fontStyle=2;align=center;verticalAlign=top;childLayout=stackLayout;horizontal=1;startSize=30;horizontalStack=0;resizeParent=1;resizeLast=0;collapsible=1;marginBottom=0;rounded=0;shadow=0;strokeWidth=1;" vertex="1" parent="WIyWlLk6GJQsqaUBKTNV-1">
          <mxGeometry x="340" y="-170" width="330" height="140" as="geometry">
            <mxRectangle x="230" y="140" width="160" height="26" as="alternateBounds" />
          </mxGeometry>
        </mxCell>
        <mxCell id="6bKCteFQpn9_bpGlKNxa-27" value="+Nombre: String&#xa;+Id: Int&#xa;&#xa;" style="text;align=left;verticalAlign=top;spacingLeft=4;spacingRight=4;overflow=hidden;rotatable=0;points=[[0,0.5],[1,0.5]];portConstraint=eastwest;" vertex="1" parent="6bKCteFQpn9_bpGlKNxa-7">
          <mxGeometry y="30" width="330" height="50" as="geometry" />
        </mxCell>
        <mxCell id="6bKCteFQpn9_bpGlKNxa-10" value="" style="line;html=1;strokeWidth=1;align=left;verticalAlign=middle;spacingTop=-1;spacingLeft=3;spacingRight=3;rotatable=0;labelPosition=right;points=[];portConstraint=eastwest;" vertex="1" parent="6bKCteFQpn9_bpGlKNxa-7">
          <mxGeometry y="80" width="330" height="8" as="geometry" />
        </mxCell>
        <mxCell id="6bKCteFQpn9_bpGlKNxa-28" value="+crearCurso() &#xa;+crearUsuario()" style="text;align=left;verticalAlign=top;spacingLeft=4;spacingRight=4;overflow=hidden;rotatable=0;points=[[0,0.5],[1,0.5]];portConstraint=eastwest;" vertex="1" parent="6bKCteFQpn9_bpGlKNxa-7">
          <mxGeometry y="88" width="330" height="50" as="geometry" />
        </mxCell>
        <mxCell id="6bKCteFQpn9_bpGlKNxa-16" value="" style="endArrow=open;endFill=1;endSize=12;html=1;rounded=0;" edge="1" parent="WIyWlLk6GJQsqaUBKTNV-1">
          <mxGeometry width="160" relative="1" as="geometry">
            <mxPoint x="500" y="530" as="sourcePoint" />
            <mxPoint x="650" y="800" as="targetPoint" />
            <Array as="points">
              <mxPoint x="500" y="580" />
              <mxPoint x="590" y="580" />
              <mxPoint x="590" y="800" />
            </Array>
          </mxGeometry>
        </mxCell>
        <mxCell id="6bKCteFQpn9_bpGlKNxa-17" value="" style="endArrow=open;endFill=1;endSize=12;html=1;rounded=0;entryX=-0.003;entryY=0.114;entryDx=0;entryDy=0;entryPerimeter=0;" edge="1" parent="WIyWlLk6GJQsqaUBKTNV-1" target="F9NlU1KI9bfKZTOe0GzZ-22">
          <mxGeometry width="160" relative="1" as="geometry">
            <mxPoint x="100" y="530" as="sourcePoint" />
            <mxPoint x="630" y="832" as="targetPoint" />
            <Array as="points">
              <mxPoint x="100" y="616" />
              <mxPoint x="573" y="616" />
              <mxPoint x="573" y="836" />
            </Array>
          </mxGeometry>
        </mxCell>
        <mxCell id="6bKCteFQpn9_bpGlKNxa-19" value="" style="endArrow=open;endFill=1;endSize=12;html=1;rounded=0;entryX=0.995;entryY=0.711;entryDx=0;entryDy=0;entryPerimeter=0;exitX=0.002;exitY=0.43;exitDx=0;exitDy=0;exitPerimeter=0;" edge="1" parent="WIyWlLk6GJQsqaUBKTNV-1" source="F9NlU1KI9bfKZTOe0GzZ-5" target="zkfFHV4jXpPFQw0GAbJ--11">
          <mxGeometry width="160" relative="1" as="geometry">
            <mxPoint x="210" y="480" as="sourcePoint" />
            <mxPoint x="240" y="480" as="targetPoint" />
          </mxGeometry>
        </mxCell>
        <mxCell id="6bKCteFQpn9_bpGlKNxa-20" value="0..*" style="resizable=0;align=left;verticalAlign=bottom;labelBackgroundColor=none;fontSize=12;direction=south;" connectable="0" vertex="1" parent="WIyWlLk6GJQsqaUBKTNV-1">
          <mxGeometry x="504.9999999999999" y="550" as="geometry">
            <mxPoint as="offset" />
          </mxGeometry>
        </mxCell>
        <mxCell id="6bKCteFQpn9_bpGlKNxa-21" value="" style="endArrow=diamondThin;endFill=1;endSize=24;html=1;rounded=0;exitX=-0.001;exitY=0.677;exitDx=0;exitDy=0;entryX=0.332;entryY=-0.008;entryDx=0;entryDy=0;entryPerimeter=0;exitPerimeter=0;" edge="1" parent="WIyWlLk6GJQsqaUBKTNV-1" source="F9NlU1KI9bfKZTOe0GzZ-6">
          <mxGeometry width="160" relative="1" as="geometry">
            <mxPoint x="540" y="292.36" as="sourcePoint" />
            <mxPoint x="79.7600000000001" y="359.9999999999999" as="targetPoint" />
            <Array as="points">
              <mxPoint x="80" y="310" />
            </Array>
          </mxGeometry>
        </mxCell>
        <mxCell id="6bKCteFQpn9_bpGlKNxa-23" value="" style="endArrow=diamondThin;endFill=1;endSize=24;html=1;rounded=0;entryX=0.529;entryY=1.011;entryDx=0;entryDy=0;exitX=0.06;exitY=0.002;exitDx=0;exitDy=0;exitPerimeter=0;entryPerimeter=0;" edge="1" parent="WIyWlLk6GJQsqaUBKTNV-1" source="F9NlU1KI9bfKZTOe0GzZ-19" target="F9NlU1KI9bfKZTOe0GzZ-6">
          <mxGeometry width="160" relative="1" as="geometry">
            <mxPoint x="658" y="594.5" as="sourcePoint" />
            <mxPoint x="610.0000000000002" y="443.53800000000007" as="targetPoint" />
            <Array as="points" />
          </mxGeometry>
        </mxCell>
        <mxCell id="6bKCteFQpn9_bpGlKNxa-25" value="" style="endArrow=diamondThin;endFill=1;endSize=24;html=1;rounded=0;entryX=0.75;entryY=1;entryDx=0;entryDy=0;exitX=0.207;exitY=0.003;exitDx=0;exitDy=0;exitPerimeter=0;" edge="1" parent="WIyWlLk6GJQsqaUBKTNV-1" source="zkfFHV4jXpPFQw0GAbJ--17" target="6bKCteFQpn9_bpGlKNxa-7">
          <mxGeometry width="160" relative="1" as="geometry">
            <mxPoint x="587" y="80" as="sourcePoint" />
            <mxPoint x="550.0000000000002" y="0.03800000000006776" as="targetPoint" />
            <Array as="points" />
          </mxGeometry>
        </mxCell>
        <mxCell id="6bKCteFQpn9_bpGlKNxa-26" value="" style="endArrow=diamondThin;endFill=1;endSize=24;html=1;rounded=0;entryX=0.75;entryY=1;entryDx=0;entryDy=0;" edge="1" parent="WIyWlLk6GJQsqaUBKTNV-1">
          <mxGeometry width="160" relative="1" as="geometry">
            <mxPoint x="371" y="30" as="sourcePoint" />
            <mxPoint x="371" y="-30" as="targetPoint" />
            <Array as="points" />
          </mxGeometry>
        </mxCell>
      </root>
    </mxGraphModel>
  </diagram>
</mxfile>
